#!OML:ASF I:\Actors\actors\Patient Classification 1\Patient 1\Session 1\Subject1.ASF
:FULLY-SPECIFIED
:DEGREES
1169
root -0.630477 17.544 7.61965 7.528 -1.5714 -7.74018
lowerback -0.245089 0.828491 6.07834
upperback -10.789 1.56042 0.84946
thorax -11.3128 0.231688 -2.61668
lowerneck -15.3984 -3.57111 -1.57533
upperneck 27.9797 -6.49265 5.68343
head 11.9961 -2.37344 1.42554
rclavicle -3.47873e-015 3.97569e-016
rhumerus -54.7983 -1.38773 -93.0456
rradius 109.133
rwrist 9.96098
rhand -21.4274 -31.3837
rfingers 7.12502
rthumb 4.96163 -61.3056
lclavicle -3.47873e-015 3.97569e-016
lhumerus -57.3423 6.49939 86.0146
lradius 103.988
lwrist 14.8841
lhand -31.4436 -22.3448
lfingers 7.12502
lthumb -4.71144 7.58284
rfemur -0.861033 21.887 27.9278
rtibia 3.04779
rfoot -13.6736 -24.5638
rtoes 5.73625
lfemur 2.87598 -35.1276 -12.019
ltibia -2.53029
lfoot -11.2776 40.9097
ltoes 0.242583
1170
root -0.633427 17.5452 7.61965 7.49389 -1.59532 -7.78483
lowerback -0.200045 0.837219 6.12002
upperback -10.7968 1.57966 0.860277
thorax -11.3478 0.236455 -2.6308
lowerneck -15.4799 -3.62155 -1.48056
upperneck 28.1239 -6.54763 5.4956
head 12.0608 -2.40717 1.33036
rclavicle 1.35174e-014 -1.03368e-014
rhumerus -54.7821 -1.34775 -92.9918
rradius 109.173
rwrist 10.0823
rhand -21.4365 -31.3319
rfingers 7.12502
rthumb 4.95291 -61.254
lclavicle 1.35174e-014 -1.03368e-014
lhumerus -58.079 5.87356 86.1029
lradius 105.286
lwrist 15.44
lhand -31.6068 -21.6382
lfingers 7.12502
lthumb -4.86912 8.28587
rfemur -0.799927 21.9247 28.0082
rtibia 3.00806
rfoot -13.7186 -24.5395
rtoes 5.89616
lfemur 2.92256 -35.0533 -11.9714
ltibia -2.54343
lfoot -11.2144 40.8733
ltoes 0.1962
1171
root -0.63826 17.544 7.61961 7.55722 -1.72668 -7.79841
lowerback -0.247102 0.883288 6.07709
upperback -10.8298 1.63768 0.869391
thorax -11.3524 0.268601 -2.60151
lowerneck -15.4533 -3.62241 -1.37279
upperneck 28.1716 -6.55003 5.38635
head 12.0658 -2.4103 1.27145
rclavicle 1.0635e-014 -2.34566e-014
rhumerus -54.7188 -1.3247 -92.9305
rradius 109.194
rwrist 10.0011
rhand -21.399 -31.3036
rfingers 7.12502
rthumb 4.98908 -61.2248
lclavicle 1.0635e-014 -2.34566e-014
lhumerus -57.3908 6.45622 86.0738
lradius 103.943
lwrist 15.0649
lhand -31.4059 -22.4434
lfingers 7.12502
lthumb -4.67505 7.48503
rfemur -0.896197 21.9529 27.9888
rtibia 3.02846
rfoot -13.7321 -24.4016
rtoes 6.09605
lfemur 2.89749 -35.0057 -11.9217
ltibia -2.57026
lfoot -11.3049 40.9589
ltoes 0.353479
1172
root -0.645669 17.5388 7.61567 7.76898 -1.98416 -7.78885
lowerback -0.386077 0.96293 5.9413
upperback -10.8985 1.7309 0.89237
thorax -11.3402 0.32753 -2.50689
lowerneck -15.3633 -3.58864 -1.32051
upperneck 28.0811 -6.51684 5.41361
head 12.0095 -2.39039 1.27873
rclavicle -8.44835e-015 1.86858e-014
rhumerus -54.5604 -1.24824 -92.8687
rradius 109.175
rwrist 9.75351
rhand -21.392 -31.4345
rfingers 7.12502
rthumb 4.99581 -61.3556
lclavicle -8.44835e-015 1.86858e-014
lhumerus -57.4135 6.44361 86.0695
lradius 103.933
lwrist 14.8696
lhand -31.484 -22.5112
lfingers 7.12502
lthumb -4.75052 7.41557
rfemur -1.25558 21.9503 27.8556
rtibia 3.16939
rfoot -13.6513 -24.119
rtoes 5.99596
lfemur 2.70355 -34.9337 -11.8045
ltibia -2.58534
lfoot -11.4505 41.14
ltoes 0.621715
1173
root -0.650809 17.5355 7.60931 7.89613 -2.03663 -7.77554
lowerback -0.41379 0.959763 5.86967
upperback -10.9482 1.724 0.911225
thorax -11.3828 0.329963 -2.44572
lowerneck -15.3421 -3.54565 -1.36063
upperneck 28.0241 -6.47941 5.54686
head 11.9883 -2.36249 1.34109
rclavicle -4.17448e-015 -2.26615e-014
rhumerus -54.3562 -1.1426 -92.7964
rradius 109.174
rwrist 9.58001
rhand -21.275 -31.6653
rfingers 7.12502
rthumb 5.10881 -61.5838
lclavicle -4.17448e-015 -2.26615e-014
lhumerus -57.8999 6.03211 86.085
lradius 104.813
lwrist 15.0215
lhand -31.6495 -21.9788
lfingers 7.12502
lthumb -4.91028 7.94435
rfemur -1.4805 21.8777 27.7794
rtibia 3.2564
rfoot -13.5316 -24.0042
rtoes 5.65121
lfemur 2.47164 -34.7833 -11.6641
ltibia -2.54032
lfoot -11.4161 41.062
ltoes 0.686477
1174
root -0.652004 17.5361 7.60613 7.86013 -1.93107 -7.82301
lowerback -0.350915 0.918269 5.94626
upperback -10.9324 1.67768 0.920677
thorax -11.4069 0.300127 -2.47518
lowerneck -15.3923 -3.53205 -1.41206
upperneck 28.0438 -6.48356 5.66611
head 12.0137 -2.35283 1.39327
rclavicle 2.18663e-015 5.1684e-015
rhumerus -54.1002 -1.05465 -92.694
rradius 109.215
rwrist 9.53997
rhand -21.0262 -31.9225
rfingers 7.12502
rthumb 5.34906 -61.835
lclavicle 2.18663e-015 5.1684e-015
lhumerus -58.0627 5.76315 86.1056
lradius 105.203
lwrist 15.2698
lhand -31.8528 -21.7508
lfingers 7.12502
lthumb -5.1066 8.16766
rfemur -1.4447 21.7685 27.8561
rtibia 3.24452
rfoot -13.5136 -24.0108
rtoes 5.60025
lfemur 2.39438 -34.6223 -11.5376
ltibia -2.5003
lfoot -11.3242 40.8351
ltoes 0.553712
1175
root -0.652157 17.5373 7.60611 7.77188 -1.83485 -7.85335
lowerback -0.307579 0.878686 6.00331
upperback -10.8813 1.63044 0.938764
thorax -11.3785 0.274513 -2.48379
lowerneck -15.3927 -3.53065 -1.44582
upperneck 27.9689 -6.48142 5.71682
head 11.9875 -2.35074 1.41769
rclavicle 1.59028e-015 -2.38542e-015
rhumerus -53.7092 -0.87794 -92.5521
rradius 109.239
rwrist 9.55431
rhand -20.8436 -32.2358
rfingers 7.12502
rthumb 5.52535 -62.1438
lclavicle 1.59028e-015 -2.38542e-015
lhumerus -57.7052 5.88038 86.1332
lradius 104.687
lwrist 15.3806
lhand -31.9625 -22.0551
lfingers 7.12502
lthumb -5.21254 7.86078
rfemur -1.32723 21.6919 27.9271
rtibia 3.19583
rfoot -13.5583 -24.0291
rtoes 5.74257
lfemur 2.41388 -34.5168 -11.5033
ltibia -2.46248
lfoot -11.2072 40.6658
ltoes 0.20612
1176
root -0.6527 17.5367 7.60467 7.74014 -1.80567 -7.83735
lowerback -0.278455 0.846255 6.00016
upperback -10.863 1.5901 0.963878
thorax -11.3792 0.256923 -2.45176
lowerneck -15.3141 -3.51994 -1.50084
upperneck 27.8061 -6.45011 5.76024
head 11.9095 -2.3427 1.44784
rclavicle -6.95746e-016 -2.42517e-014
rhumerus -53.1299 -0.566686 -92.3689
rradius 109.262
rwrist 9.5021
rhand -20.5176 -32.6826
rfingers 7.12502
rthumb 5.84012 -62.5822
lclavicle -6.95746e-016 -2.42517e-014
lhumerus -57.3499 6.03269 86.1851
lradius 104.165
lwrist 15.516
lhand -31.9169 -22.1318
lfingers 7.12502
lthumb -5.16848 7.78519
rfemur -1.31132 21.5922 27.9139
rtibia 3.20548
rfoot -13.524 -24.0002
rtoes 5.43393
lfemur 2.38361 -34.456 -11.5129
ltibia -2.402
lfoot -11.1165 40.5846
ltoes -0.0373685
1177
root -0.653081 17.536 7.60057 7.72107 -1.85815 -7.81137
lowerback -0.199224 0.853424 6.01654
upperback -10.8615 1.60572 0.951284
thorax -11.4241 0.260698 -2.47743
lowerneck -15.2627 -3.51842 -1.56859
upperneck 27.6879 -6.44543 5.84686
head 11.8584 -2.34073 1.49215
rclavicle 5.36719e-015 1.98785e-014
rhumerus -52.3034 -0.200879 -92.156
rradius 109.322
rwrist 9.31872
rhand -19.8295 -33.205
rfingers 7.12502
rthumb 6.50443 -63.0852
lclavicle 5.36719e-015 1.98785e-014
lhumerus -57.6688 5.526 86.2865
lradius 104.964
lwrist 15.9643
lhand -31.9366 -21.2725
lfingers 7.12502
lthumb -5.18751 8.64399
rfemur -1.33552 21.548 27.8813
rtibia 3.25658
rfoot -13.4706 -23.9741
rtoes 4.88865
lfemur 2.37211 -34.4289 -11.5461
ltibia -2.35649
lfoot -11.1051 40.592
ltoes -0.0538224
1178
root -0.653171 17.5377 7.5952 7.61253 -1.95066 -7.75412
lowerback -0.0286509 0.897312 6.0343
upperback -10.8238 1.67155 0.881669
thorax -11.4762 0.285656 -2.57207
lowerneck -15.305 -3.54973 -1.61731
upperneck 27.595 -6.50573 5.96531
head 11.8405 -2.35909 1.53401
rclavicle 1.08338e-014 -1.15295e-014
rhumerus -51.1852 0.20366 -91.9432
rradius 109.332
rwrist 9.51749
rhand -19.0829 -33.6304
rfingers 7.12502
rthumb 7.22511 -63.4871
lclavicle 1.08338e-014 -1.15295e-014
lhumerus -57.1545 5.12815 86.387
lradius 104.74
lwrist 16.1557
lhand -31.8292 -20.8631
lfingers 7.12502
lthumb -5.08382 9.05594
rfemur -1.22127 21.6258 27.8605
rtibia 3.25087
rfoot -13.4662 -24.003
rtoes 4.6672
lfemur 2.48185 -34.3123 -11.6781
ltibia -2.32086
lfoot -11.0287 40.5356
ltoes -0.252221
